<svg width="10" height="10" viewBox="0 0 10 10" fill="none" xmlns="http://www.w3.org/2000/svg">
<path d="M9.00001 4.37C9.12342 5.20224 8.98127 6.05221 8.59377 6.79901C8.20627 7.54581 7.59316 8.15141 6.84164 8.52967C6.09012 8.90793 5.23846 9.03959 4.4078 8.90593C3.57714 8.77226 2.80977 8.38008 2.21485 7.78516C1.61993 7.19024 1.22774 6.42287 1.09408 5.59221C0.960415 4.76155 1.09208 3.90989 1.47034 3.15837C1.8486 2.40685 2.4542 1.79374 3.201 1.40624C3.9478 1.01874 4.79777 0.876585 5.63001 0.999996C6.47894 1.12588 7.26486 1.52146 7.87171 2.1283C8.47855 2.73515 8.87413 3.52107 9.00001 4.37Z" stroke="#F9F9F9" stroke-width="1.5" stroke-linecap="round" stroke-linejoin="round"/>
</svg>
